<svg width="149" height="30" viewBox="0 0 149 30" fill="none" xmlns="http://www.w3.org/2000/svg">
<path fill-rule="evenodd" clip-rule="evenodd" d="M0 13.2912V29.3236H2.99051V16.2817H16.2817V13.2912H0ZM0 3.23972H19.0645V0.249209H0V3.23972ZM31.3588 0.249209H28.6175L17.6108 29.3236H20.9336L29.9882 5.02572L39.0013 29.3236H42.324L31.3588 0.249209ZM58.938 26.6654C52.3764 26.6654 47.682 21.3489 47.682 14.7864C47.682 8.26544 52.3764 2.94898 58.938 2.94898C62.9253 2.94898 66.2897 4.90112 68.2833 7.93228L70.9416 6.60405C68.4504 2.6167 64.0883 0 58.938 0C50.7565 0 44.6085 6.60405 44.6085 14.7864C44.6085 22.9688 50.7565 29.6144 58.938 29.6144C64.0883 29.6144 68.4504 26.9977 70.9416 22.9688L68.2833 21.6812C66.2897 24.7133 62.9253 26.6654 58.938 26.6654ZM73.0183 3.23972H94.0774V0.249209H73.0183V3.23972ZM82.0314 29.3236H85.0634V8.05777H82.0314V29.3236ZM108.822 0C100.639 0 94.7004 6.64558 94.7004 14.828C94.7004 23.0103 100.639 29.6559 108.822 29.6559C117.005 29.6559 122.903 23.0103 122.903 14.828C122.903 6.64558 117.005 0 108.822 0ZM108.822 26.7069C102.259 26.7069 97.7731 21.3905 97.7731 14.828C97.7731 8.26544 102.259 2.94898 108.822 2.94898C115.343 2.94898 119.829 8.26544 119.829 14.828C119.829 21.3905 115.343 26.7069 108.822 26.7069ZM148.197 29.3236L141.635 17.6939C145.124 16.4063 147.491 13.042 147.491 9.26228C147.491 4.31963 143.836 0.249209 138.354 0.249209C133.494 0.249209 127.471 0.249209 127.471 0.249209V3.23972H138.354C142.049 3.23972 144.376 5.98102 144.376 9.26228C144.376 12.502 142.049 15.2848 138.354 15.2848H127.471V29.3236H130.462V18.2753H138.354C138.436 18.2753 138.478 18.2753 138.52 18.2753L144.75 29.3236H148.197Z" fill="white"/>
</svg>
